<svg width="80" height="80" viewBox="0 0 80 80" fill="none" xmlns="http://www.w3.org/2000/svg">
<path d="M44.1145 68.0106C41.6611 69.7931 38.3389 69.7931 35.8855 68.0106L14.6317 52.5689C12.1783 50.7864 11.1517 47.6268 12.0889 44.7426L20.2071 19.7574C21.1442 16.8732 23.8319 14.9205 26.8645 14.9205L53.1355 14.9205C56.1681 14.9205 58.8558 16.8732 59.7929 19.7573L67.9112 44.7426C68.8483 47.6268 67.8217 50.7864 65.3683 52.5689L44.1145 68.0106Z" fill="#5E47D2"/>
<path d="M43.5267 76.2016C41.4238 77.7295 38.5762 77.7295 36.4733 76.2016L6.66001 54.541C4.55709 53.0132 3.67714 50.3049 4.4804 47.8328L15.8681 12.7852C16.6713 10.3131 18.975 8.63932 21.5744 8.63932L58.4256 8.63933C61.025 8.63933 63.3287 10.3131 64.132 12.7852L75.5196 47.8328C76.3229 50.305 75.4429 53.0132 73.34 54.541L43.5267 76.2016Z" stroke="#5E47D2" stroke-width="2"/>
<path d="M50.5 32.25L35.375 47.375L28.5 40.5" stroke="white" stroke-width="2" stroke-linecap="round" stroke-linejoin="round"/>
</svg>
