<svg width="50" height="50" viewBox="0 0 50 50" fill="none" xmlns="http://www.w3.org/2000/svg">
<rect width="50" height="50" rx="16" fill="url(#paint0_linear_73_683)"/>
<path d="M25 10C26.9891 10 28.8968 10.7902 30.3033 12.1967C31.7098 13.6032 32.5 15.5109 32.5 17.5C32.5 19.4891 31.7098 21.3968 30.3033 22.8033C28.8968 24.2098 26.9891 25 25 25C23.0109 25 21.1032 24.2098 19.6967 22.8033C18.2902 21.3968 17.5 19.4891 17.5 17.5C17.5 15.5109 18.2902 13.6032 19.6967 12.1967C21.1032 10.7902 23.0109 10 25 10ZM25 28.75C33.2875 28.75 40 32.1063 40 36.25V37C40 38.6569 38.6569 40 37 40H13C11.3431 40 10 38.6569 10 37V36.25C10 32.1063 16.7125 28.75 25 28.75Z" fill="url(#paint1_linear_73_683)"/>
<defs>
<linearGradient id="paint0_linear_73_683" x1="25" y1="0" x2="25" y2="50" gradientUnits="userSpaceOnUse">
<stop stop-color="white" stop-opacity="0.9"/>
<stop offset="1" stop-color="white" stop-opacity="0.45"/>
</linearGradient>
<linearGradient id="paint1_linear_73_683" x1="25" y1="10" x2="25" y2="40" gradientUnits="userSpaceOnUse">
<stop stop-color="#55C2FF"/>
<stop offset="1" stop-color="#479AFF"/>
</linearGradient>
</defs>
</svg>
