<svg width="28" height="32" viewBox="0 0 28 32" fill="none" xmlns="http://www.w3.org/2000/svg">
<path d="M17.1111 20.65H6.22222V23.75H17.1111M24.8889 28.4H3.11111V11.35H24.8889M24.8889 3.6H23.3333V0.5H20.2222V3.6H7.77778V0.5H4.66667V3.6H3.11111C1.38444 3.6 0 4.995 0 6.7V28.4C0 29.2222 0.327777 30.0107 0.911223 30.592C1.49467 31.1734 2.28599 31.5 3.11111 31.5H24.8889C25.714 31.5 26.5053 31.1734 27.0888 30.592C27.6722 30.0107 28 29.2222 28 28.4V6.7C28 5.87783 27.6722 5.08933 27.0888 4.50797C26.5053 3.92661 25.714 3.6 24.8889 3.6ZM21.7778 14.45H6.22222V17.55H21.7778V14.45Z" fill="#439DE0" fill-opacity="0.6"/>
</svg>
