<svg width="34" height="26" viewBox="0 0 34 26" fill="none" xmlns="http://www.w3.org/2000/svg">
<path d="M21.6364 16.125C17.4636 16.125 9.27273 18.1562 9.27273 22.375V25.5H34V22.375C34 18.1562 25.8091 16.125 21.6364 16.125ZM21.6364 13C23.2759 13 24.8483 12.3415 26.0076 11.1694C27.1669 9.99732 27.8182 8.4076 27.8182 6.75C27.8182 5.0924 27.1669 3.50268 26.0076 2.33058C24.8483 1.15848 23.2759 0.5 21.6364 0.5C19.9968 0.5 18.4245 1.15848 17.2652 2.33058C16.1058 3.50268 15.4545 5.0924 15.4545 6.75C15.4545 8.4076 16.1058 9.99732 17.2652 11.1694C18.4245 12.3415 19.9968 13 21.6364 13ZM6.18182 17.6875L5.25455 16.9062C2.16364 13.9375 0 12.0625 0 9.71875C0 7.84375 1.54545 6.28125 3.4 6.28125C4.48182 6.28125 5.56364 6.75 6.18182 7.53125C6.8 6.75 7.88182 6.28125 8.96364 6.28125C10.8182 6.28125 12.3636 7.6875 12.3636 9.71875C12.3636 12.0625 10.2 13.9375 7.10909 16.9062L6.18182 17.6875Z" fill="#439DE0" fill-opacity="0.6"/>
</svg>
