<svg width="31" height="32" viewBox="0 0 31 32" fill="none" xmlns="http://www.w3.org/2000/svg">
<path d="M20.2585 14.8375L18.8635 16.2635C17.7475 17.3795 17.05 18.325 17.05 20.65H13.95V19.875C13.95 18.1545 14.6475 16.6045 15.7635 15.4885L17.6855 13.5355C18.259 12.9775 18.6 12.2025 18.6 11.35C18.6 9.6295 17.205 8.25 15.5 8.25C14.6778 8.25 13.8893 8.57661 13.308 9.15797C12.7266 9.73933 12.4 10.5278 12.4 11.35H9.3C9.3 9.70566 9.95321 8.12866 11.1159 6.96594C12.2787 5.80321 13.8557 5.15 15.5 5.15C17.1443 5.15 18.7213 5.80321 19.8841 6.96594C21.0468 8.12866 21.7 9.70566 21.7 11.35C21.7 12.714 21.142 13.9385 20.2585 14.8375ZM17.05 26.85H13.95V23.75H17.05M15.5 0.5C13.4645 0.5 11.449 0.900919 9.56841 1.67987C7.68786 2.45882 5.97915 3.60054 4.53984 5.03984C1.63303 7.94666 0 11.8891 0 16C0 20.1109 1.63303 24.0533 4.53984 26.9602C5.97915 28.3995 7.68786 29.5412 9.56841 30.3201C11.449 31.0991 13.4645 31.5 15.5 31.5C19.6109 31.5 23.5533 29.867 26.4602 26.9602C29.367 24.0533 31 20.1109 31 16C31 7.4285 24.025 0.5 15.5 0.5Z" fill="#439DE0" fill-opacity="0.6"/>
</svg>
